# xmcd
#
# Track frame offsets:
#	150
#	12112
#	27332
#	41592
#	57217
#	73295
#	90222
#	106487
#	120087
#
# Disc length: 1775
#
# Revision: 2
# Processed by: cddbd v1.5.1PL0 Copyright (c) Steve Scherf et al.
# Submitted via: uFREEDB 1.6.0
# Normalized: r0:TDELIM( - ),TSWAP
#
DISCID=6706ed09
DTITLE=Various Artist - CDX 6A
DYEAR=1991
DGENRE=Country
TTITLE0=Lobo Loggins - Ain't No Cows In Texas
TTITLE1=Collin Raye - All I Can Be
TTITLE2=Brooks and Dunn - Brand New Man
TTITLE3=Mark Collie - Calloused Hands
TTITLE4=Mary - Chapin Carpente - Down At The Twist and Shout
TTITLE5=Tanya Tucker - Down To My Last Teardrop
TTITLE6=Exile - Even Now
TTITLE7=Marty Brown - Every Now And Then
TTITLE8=Barbara Mandrell - Feed The Fire
EXTD=
EXTT0=
EXTT1=
EXTT2=
EXTT3=
EXTT4=
EXTT5=
EXTT6=
EXTT7=
EXTT8=
PLAYORDER=
